<svg width="65" height="77" viewBox="0 0 65 77" fill="none" xmlns="http://www.w3.org/2000/svg">
<path d="M64 27H1C2.81295 15.6196 11.3338 -5.1619 30.9137 2.75489C40.1295 -0.873632 59.6489 -1.10454 64 27Z" fill="black" stroke="black"/>
<ellipse cx="33" cy="42.443" rx="26" ry="34.557" fill="#E0AC69"/>
<mask id="mask0" mask-type="alpha" maskUnits="userSpaceOnUse" x="7" y="45" width="52" height="19">
<path d="M59 45.9873H7L8.65079 55.7342L11.127 61.4937L13.0938 63.7089H52.9062L54.873 61.4937L57.3492 55.7342L59 45.9873Z" fill="#F0247A"/>
</mask>
<g mask="url(#mask0)">
<path d="M59 45.9873H7L8.65079 55.7342L11.127 61.4937L13.0938 63.7089H52.9062L54.873 61.4937L57.3492 55.7342L59 45.9873Z" fill="#F0247A"/>
<path d="M46 40L31 70" stroke="black" stroke-width="5"/>
<path d="M59 40L44 70" stroke="black" stroke-width="5"/>
<path d="M32 40L17 70" stroke="black" stroke-width="5"/>
<path d="M20 40L5 70" stroke="black" stroke-width="5"/>
</g>
<ellipse cx="42.4921" cy="32.6962" rx="1.65079" ry="1.77215" fill="black"/>
<ellipse cx="24.3333" cy="32.6962" rx="1.65079" ry="1.77215" fill="black"/>
</svg>
